<?xml version="1.0" encoding="UTF-8"?>
<svg xmlns="http://www.w3.org/2000/svg" xmlns:xlink="http://www.w3.org/1999/xlink" viewBox="0 0 28 28" width="28px" height="28px">
<g id="surface67912480">
<path style=" stroke:none;fill-rule:nonzero;fill:rgb(100%,100%,100%);fill-opacity:1;" d="M 18.480469 16.238281 C 17.472656 16.238281 16.800781 17.089844 16.800781 18.480469 C 16.800781 19.871094 17.296875 21.304688 18.480469 21.28125 C 19.722656 21.25 20.171875 20.035156 20.160156 18.480469 C 20.152344 17.089844 19.484375 16.238281 18.480469 16.238281 Z M 24.785156 9.558594 C 24.941406 8.804688 25.003906 6.140625 23.902344 3.359375 C 23.902344 3.359375 21.363281 3.636719 17.527344 6.273438 C 16.722656 6.046875 15.359375 5.9375 14 5.9375 C 12.640625 5.9375 11.277344 6.046875 10.472656 6.269531 C 6.636719 3.636719 4.101562 3.359375 4.101562 3.359375 C 2.996094 6.140625 3.050781 8.742188 3.214844 9.558594 C 1.914062 10.96875 1.121094 12.660156 1.121094 14.976562 C 1.121094 25.035156 9.46875 25.199219 11.574219 25.199219 C 12.050781 25.199219 13 25.199219 14 25.199219 C 15 25.199219 15.953125 25.199219 16.425781 25.199219 C 18.53125 25.199219 26.878906 25.035156 26.878906 14.976562 C 26.878906 12.660156 26.085938 10.96875 24.785156 9.558594 Z M 14.078125 24.078125 L 14 24.078125 C 8.71875 24.078125 4.566406 23.328125 4.566406 18.199219 C 4.566406 16.96875 5.003906 15.828125 6.03125 14.882812 C 7.753906 13.300781 10.660156 14.136719 13.960938 14.136719 C 13.972656 14.136719 14.027344 14.136719 14.039062 14.136719 C 17.339844 14.136719 20.25 13.304688 21.96875 14.882812 C 23 15.828125 23.433594 16.96875 23.433594 18.199219 C 23.433594 23.328125 19.359375 24.078125 14.078125 24.078125 Z M 9.519531 16.238281 C 8.515625 16.238281 7.839844 17.367188 7.839844 18.761719 C 7.839844 20.152344 8.515625 21.28125 9.519531 21.28125 C 10.527344 21.28125 11.199219 20.152344 11.199219 18.761719 C 11.199219 17.367188 10.527344 16.238281 9.519531 16.238281 Z M 9.519531 16.238281 "/>
</g>
</svg>
