<?xml version="1.0" encoding="UTF-8"?>
<svg xmlns="http://www.w3.org/2000/svg" xmlns:xlink="http://www.w3.org/1999/xlink" viewBox="0 0 28 28" width="28px" height="28px">
<g id="surface65733631">
<path style=" stroke:none;fill-rule:nonzero;fill:rgb(100%,100%,100%);fill-opacity:1;" d="M 6.71875 1.679688 C 3.941406 1.679688 1.679688 3.941406 1.679688 6.71875 L 1.679688 21.28125 C 1.679688 24.058594 3.941406 26.320312 6.71875 26.320312 L 21.28125 26.320312 C 24.058594 26.320312 26.320312 24.058594 26.320312 21.28125 L 26.320312 6.71875 C 26.320312 3.941406 24.058594 1.679688 21.28125 1.679688 Z M 21.28125 4.480469 L 22.960938 4.480469 C 23.269531 4.480469 23.519531 4.730469 23.519531 5.039062 L 23.519531 6.71875 C 23.519531 7.027344 23.269531 7.28125 22.960938 7.28125 L 21.28125 7.28125 C 20.972656 7.28125 20.71875 7.027344 20.71875 6.71875 L 20.71875 5.039062 C 20.71875 4.730469 20.972656 4.480469 21.28125 4.480469 Z M 14 5.601562 C 16.984375 5.601562 19.609375 7.167969 21.101562 9.519531 L 23.519531 9.519531 L 23.519531 20.71875 C 23.519531 22.265625 22.265625 23.519531 20.71875 23.519531 L 7.28125 23.519531 C 5.734375 23.519531 4.480469 22.265625 4.480469 20.71875 L 4.480469 9.519531 L 6.898438 9.519531 C 8.390625 7.167969 11.015625 5.601562 14 5.601562 Z M 14 6.71875 C 9.984375 6.71875 6.71875 9.984375 6.71875 14 C 6.71875 18.015625 9.984375 21.28125 14 21.28125 C 18.015625 21.28125 21.28125 18.015625 21.28125 14 C 21.28125 9.984375 18.015625 6.71875 14 6.71875 Z M 14 8.960938 C 16.777344 8.960938 19.039062 11.222656 19.039062 14 C 19.039062 16.777344 16.777344 19.039062 14 19.039062 C 11.222656 19.039062 8.960938 16.777344 8.960938 14 C 8.960938 11.222656 11.222656 8.960938 14 8.960938 Z M 14 8.960938 "/>
</g>
</svg>
