<?xml version="1.0" encoding="UTF-8"?>
<svg xmlns="http://www.w3.org/2000/svg" xmlns:xlink="http://www.w3.org/1999/xlink" viewBox="0 0 28 28" width="28px" height="28px">
<g id="surface67826705">
<path style=" stroke:none;fill-rule:nonzero;fill:rgb(100%,100%,100%);fill-opacity:1;" d="M 22.960938 2.238281 L 5.039062 2.238281 C 3.496094 2.238281 2.238281 3.496094 2.238281 5.039062 L 2.238281 22.960938 C 2.238281 24.503906 3.496094 25.761719 5.039062 25.761719 L 22.960938 25.761719 C 24.503906 25.761719 25.761719 24.503906 25.761719 22.960938 L 25.761719 5.039062 C 25.761719 3.496094 24.503906 2.238281 22.960938 2.238281 Z M 9.519531 11.199219 L 9.519531 21.839844 L 6.160156 21.839844 L 6.160156 11.199219 Z M 6.160156 8.101562 C 6.160156 7.320312 6.832031 6.71875 7.839844 6.71875 C 8.847656 6.71875 9.480469 7.320312 9.519531 8.101562 C 9.519531 8.886719 8.894531 9.519531 7.839844 9.519531 C 6.832031 9.519531 6.160156 8.886719 6.160156 8.101562 Z M 21.839844 21.839844 L 18.480469 21.839844 C 18.480469 21.839844 18.480469 16.65625 18.480469 16.238281 C 18.480469 15.121094 17.921875 14 16.519531 13.976562 L 16.476562 13.976562 C 15.121094 13.976562 14.558594 15.132812 14.558594 16.238281 C 14.558594 16.75 14.558594 21.839844 14.558594 21.839844 L 11.199219 21.839844 L 11.199219 11.199219 L 14.558594 11.199219 L 14.558594 12.632812 C 14.558594 12.632812 15.640625 11.199219 17.8125 11.199219 C 20.035156 11.199219 21.839844 12.730469 21.839844 15.824219 Z M 21.839844 21.839844 "/>
</g>
</svg>
