<?xml version="1.0" encoding="UTF-8"?>
<svg xmlns="http://www.w3.org/2000/svg" xmlns:xlink="http://www.w3.org/1999/xlink" viewBox="0 0 28 28" width="28px" height="28px">
<g id="surface67912942">
<path style=" stroke:none;fill-rule:nonzero;fill:rgb(100%,100%,100%);fill-opacity:1;" d="M 25.144531 8.121094 C 24.921875 6.886719 23.855469 5.992188 22.625 5.710938 C 20.777344 5.320312 17.359375 5.039062 13.664062 5.039062 C 9.96875 5.039062 6.496094 5.320312 4.648438 5.710938 C 3.417969 5.992188 2.351562 6.832031 2.128906 8.121094 C 1.902344 9.519531 1.679688 11.480469 1.679688 14 C 1.679688 16.519531 1.902344 18.480469 2.183594 19.878906 C 2.410156 21.113281 3.472656 22.007812 4.703125 22.289062 C 6.664062 22.679688 10.023438 22.960938 13.71875 22.960938 C 17.417969 22.960938 20.777344 22.679688 22.738281 22.289062 C 23.96875 22.007812 25.03125 21.167969 25.257812 19.878906 C 25.480469 18.480469 25.761719 16.464844 25.816406 14 C 25.703125 11.480469 25.421875 9.519531 25.144531 8.121094 Z M 10.640625 17.921875 L 10.640625 10.078125 L 17.472656 14 Z M 10.640625 17.921875 "/>
</g>
</svg>
