<svg width="179" height="27" viewBox="0 0 179 27" fill="none" xmlns="http://www.w3.org/2000/svg">
<path d="M0.84 11.6C0.84 9.952 1.208 8.48 1.944 7.184C2.696 5.872 3.712 4.856 4.992 4.136C6.288 3.4 7.736 3.032 9.336 3.032C11.208 3.032 12.848 3.512 14.256 4.472C15.664 5.432 16.648 6.76 17.208 8.456H13.344C12.96 7.656 12.416 7.056 11.712 6.656C11.024 6.256 10.224 6.056 9.312 6.056C8.336 6.056 7.464 6.288 6.696 6.752C5.944 7.2 5.352 7.84 4.92 8.672C4.504 9.504 4.296 10.48 4.296 11.6C4.296 12.704 4.504 13.68 4.92 14.528C5.352 15.36 5.944 16.008 6.696 16.472C7.464 16.92 8.336 17.144 9.312 17.144C10.224 17.144 11.024 16.944 11.712 16.544C12.416 16.128 12.96 15.52 13.344 14.72H17.208C16.648 16.432 15.664 17.768 14.256 18.728C12.864 19.672 11.224 20.144 9.336 20.144C7.736 20.144 6.288 19.784 4.992 19.064C3.712 18.328 2.696 17.312 1.944 16.016C1.208 14.72 0.84 13.248 0.84 11.6ZM26.2319 20.216C24.9519 20.216 23.7999 19.936 22.7759 19.376C21.7519 18.8 20.9439 17.992 20.3519 16.952C19.7759 15.912 19.4879 14.712 19.4879 13.352C19.4879 11.992 19.7839 10.792 20.3759 9.752C20.9839 8.712 21.8079 7.912 22.8479 7.352C23.8879 6.776 25.0479 6.488 26.3279 6.488C27.6079 6.488 28.7679 6.776 29.8079 7.352C30.8479 7.912 31.6639 8.712 32.2559 9.752C32.8639 10.792 33.1679 11.992 33.1679 13.352C33.1679 14.712 32.8559 15.912 32.2319 16.952C31.6239 17.992 30.7919 18.8 29.7359 19.376C28.6959 19.936 27.5279 20.216 26.2319 20.216ZM26.2319 17.288C26.8399 17.288 27.4079 17.144 27.9359 16.856C28.4799 16.552 28.9119 16.104 29.2319 15.512C29.5519 14.92 29.7119 14.2 29.7119 13.352C29.7119 12.088 29.3759 11.12 28.7039 10.448C28.0479 9.76 27.2399 9.416 26.2799 9.416C25.3199 9.416 24.5119 9.76 23.8559 10.448C23.2159 11.12 22.8959 12.088 22.8959 13.352C22.8959 14.616 23.2079 15.592 23.8319 16.28C24.4719 16.952 25.2719 17.288 26.2319 17.288ZM35.0186 13.304C35.0186 11.96 35.2826 10.768 35.8106 9.728C36.3546 8.688 37.0906 7.888 38.0186 7.328C38.9466 6.768 39.9786 6.488 41.1146 6.488C41.9786 6.488 42.8026 6.68 43.5866 7.064C44.3706 7.432 44.9946 7.928 45.4586 8.552V2.24H48.8666V20H45.4586V18.032C45.0426 18.688 44.4586 19.216 43.7066 19.616C42.9546 20.016 42.0826 20.216 41.0906 20.216C39.9706 20.216 38.9466 19.928 38.0186 19.352C37.0906 18.776 36.3546 17.968 35.8106 16.928C35.2826 15.872 35.0186 14.664 35.0186 13.304ZM45.4826 13.352C45.4826 12.536 45.3226 11.84 45.0026 11.264C44.6826 10.672 44.2506 10.224 43.7066 9.92C43.1626 9.6 42.5786 9.44 41.9546 9.44C41.3306 9.44 40.7546 9.592 40.2266 9.896C39.6986 10.2 39.2666 10.648 38.9306 11.24C38.6106 11.816 38.4506 12.504 38.4506 13.304C38.4506 14.104 38.6106 14.808 38.9306 15.416C39.2666 16.008 39.6986 16.464 40.2266 16.784C40.7706 17.104 41.3466 17.264 41.9546 17.264C42.5786 17.264 43.1626 17.112 43.7066 16.808C44.2506 16.488 44.6826 16.04 45.0026 15.464C45.3226 14.872 45.4826 14.168 45.4826 13.352ZM64.7582 13.064C64.7582 13.544 64.7262 13.976 64.6622 14.36H54.9422C55.0222 15.32 55.3582 16.072 55.9502 16.616C56.5422 17.16 57.2702 17.432 58.1342 17.432C59.3822 17.432 60.2702 16.896 60.7982 15.824H64.4222C64.0382 17.104 63.3022 18.16 62.2142 18.992C61.1262 19.808 59.7902 20.216 58.2062 20.216C56.9262 20.216 55.7742 19.936 54.7502 19.376C53.7422 18.8 52.9502 17.992 52.3742 16.952C51.8142 15.912 51.5342 14.712 51.5342 13.352C51.5342 11.976 51.8142 10.768 52.3742 9.728C52.9342 8.688 53.7182 7.888 54.7262 7.328C55.7342 6.768 56.8942 6.488 58.2062 6.488C59.4702 6.488 60.5982 6.76 61.5902 7.304C62.5982 7.848 63.3742 8.624 63.9182 9.632C64.4782 10.624 64.7582 11.768 64.7582 13.064ZM61.2782 12.104C61.2622 11.24 60.9502 10.552 60.3422 10.04C59.7342 9.512 58.9902 9.248 58.1102 9.248C57.2782 9.248 56.5742 9.504 55.9982 10.016C55.4382 10.512 55.0942 11.208 54.9662 12.104H61.2782ZM72.6134 11.6C72.6134 9.952 72.9814 8.48 73.7174 7.184C74.4694 5.872 75.4854 4.856 76.7654 4.136C78.0614 3.4 79.5094 3.032 81.1094 3.032C82.9814 3.032 84.6214 3.512 86.0294 4.472C87.4374 5.432 88.4214 6.76 88.9814 8.456H85.1174C84.7334 7.656 84.1894 7.056 83.4854 6.656C82.7974 6.256 81.9974 6.056 81.0854 6.056C80.1094 6.056 79.2374 6.288 78.4694 6.752C77.7174 7.2 77.1254 7.84 76.6934 8.672C76.2774 9.504 76.0694 10.48 76.0694 11.6C76.0694 12.704 76.2774 13.68 76.6934 14.528C77.1254 15.36 77.7174 16.008 78.4694 16.472C79.2374 16.92 80.1094 17.144 81.0854 17.144C81.9974 17.144 82.7974 16.944 83.4854 16.544C84.1894 16.128 84.7334 15.52 85.1174 14.72H88.9814C88.4214 16.432 87.4374 17.768 86.0294 18.728C84.6374 19.672 82.9974 20.144 81.1094 20.144C79.5094 20.144 78.0614 19.784 76.7654 19.064C75.4854 18.328 74.4694 17.312 73.7174 16.016C72.9814 14.72 72.6134 13.248 72.6134 11.6ZM99.5893 6.512C100.597 6.512 101.493 6.736 102.277 7.184C103.061 7.616 103.669 8.264 104.101 9.128C104.549 9.976 104.773 11 104.773 12.2V20H101.413V12.656C101.413 11.6 101.149 10.792 100.621 10.232C100.093 9.656 99.3733 9.368 98.4613 9.368C97.5333 9.368 96.7973 9.656 96.2533 10.232C95.7253 10.792 95.4613 11.6 95.4613 12.656V20H92.1013V2.24H95.4613V8.36C95.8933 7.784 96.4693 7.336 97.1893 7.016C97.9093 6.68 98.7093 6.512 99.5893 6.512ZM107.354 13.304C107.354 11.96 107.618 10.768 108.146 9.728C108.691 8.688 109.419 7.888 110.331 7.328C111.259 6.768 112.291 6.488 113.427 6.488C114.419 6.488 115.283 6.688 116.019 7.088C116.771 7.488 117.371 7.992 117.819 8.6V6.704H121.203V20H117.819V18.056C117.387 18.68 116.787 19.2 116.019 19.616C115.267 20.016 114.395 20.216 113.403 20.216C112.283 20.216 111.259 19.928 110.331 19.352C109.419 18.776 108.691 17.968 108.146 16.928C107.618 15.872 107.354 14.664 107.354 13.304ZM117.819 13.352C117.819 12.536 117.659 11.84 117.339 11.264C117.019 10.672 116.587 10.224 116.043 9.92C115.499 9.6 114.915 9.44 114.291 9.44C113.667 9.44 113.091 9.592 112.562 9.896C112.035 10.2 111.603 10.648 111.267 11.24C110.947 11.816 110.787 12.504 110.787 13.304C110.787 14.104 110.947 14.808 111.267 15.416C111.603 16.008 112.035 16.464 112.562 16.784C113.107 17.104 113.683 17.264 114.291 17.264C114.915 17.264 115.499 17.112 116.043 16.808C116.587 16.488 117.019 16.04 117.339 15.464C117.659 14.872 117.819 14.168 117.819 13.352ZM128.094 8.624C128.526 8.016 129.118 7.512 129.87 7.112C130.638 6.696 131.51 6.488 132.486 6.488C133.622 6.488 134.646 6.768 135.558 7.328C136.486 7.888 137.214 8.688 137.742 9.728C138.286 10.752 138.558 11.944 138.558 13.304C138.558 14.664 138.286 15.872 137.742 16.928C137.214 17.968 136.486 18.776 135.558 19.352C134.646 19.928 133.622 20.216 132.486 20.216C131.51 20.216 130.646 20.016 129.894 19.616C129.158 19.216 128.558 18.712 128.094 18.104V26.336H124.734V6.704H128.094V8.624ZM135.126 13.304C135.126 12.504 134.958 11.816 134.622 11.24C134.302 10.648 133.87 10.2 133.326 9.896C132.798 9.592 132.222 9.44 131.598 9.44C130.99 9.44 130.414 9.6 129.87 9.92C129.342 10.224 128.91 10.672 128.574 11.264C128.254 11.856 128.094 12.552 128.094 13.352C128.094 14.152 128.254 14.848 128.574 15.44C128.91 16.032 129.342 16.488 129.87 16.808C130.414 17.112 130.99 17.264 131.598 17.264C132.222 17.264 132.798 17.104 133.326 16.784C133.87 16.464 134.302 16.008 134.622 15.416C134.958 14.824 135.126 14.12 135.126 13.304ZM144.61 8.624C145.042 8.016 145.634 7.512 146.386 7.112C147.154 6.696 148.026 6.488 149.002 6.488C150.138 6.488 151.162 6.768 152.074 7.328C153.002 7.888 153.73 8.688 154.258 9.728C154.802 10.752 155.074 11.944 155.074 13.304C155.074 14.664 154.802 15.872 154.258 16.928C153.73 17.968 153.002 18.776 152.074 19.352C151.162 19.928 150.138 20.216 149.002 20.216C148.026 20.216 147.162 20.016 146.41 19.616C145.674 19.216 145.074 18.712 144.61 18.104V26.336H141.25V6.704H144.61V8.624ZM151.642 13.304C151.642 12.504 151.474 11.816 151.138 11.24C150.818 10.648 150.386 10.2 149.842 9.896C149.314 9.592 148.738 9.44 148.114 9.44C147.506 9.44 146.93 9.6 146.386 9.92C145.858 10.224 145.426 10.672 145.09 11.264C144.77 11.856 144.61 12.552 144.61 13.352C144.61 14.152 144.77 14.848 145.09 15.44C145.426 16.032 145.858 16.488 146.386 16.808C146.93 17.112 147.506 17.264 148.114 17.264C148.738 17.264 149.314 17.104 149.842 16.784C150.386 16.464 150.818 16.008 151.138 15.416C151.474 14.824 151.642 14.12 151.642 13.304ZM159.469 5.12C158.877 5.12 158.381 4.936 157.981 4.568C157.597 4.184 157.405 3.712 157.405 3.152C157.405 2.592 157.597 2.128 157.981 1.76C158.381 1.376 158.877 1.184 159.469 1.184C160.061 1.184 160.549 1.376 160.933 1.76C161.333 2.128 161.533 2.592 161.533 3.152C161.533 3.712 161.333 4.184 160.933 4.568C160.549 4.936 160.061 5.12 159.469 5.12ZM161.125 6.704V20H157.765V6.704H161.125ZM177.055 13.064C177.055 13.544 177.023 13.976 176.959 14.36H167.239C167.319 15.32 167.655 16.072 168.247 16.616C168.839 17.16 169.567 17.432 170.431 17.432C171.679 17.432 172.567 16.896 173.095 15.824H176.719C176.335 17.104 175.599 18.16 174.511 18.992C173.423 19.808 172.087 20.216 170.503 20.216C169.223 20.216 168.071 19.936 167.047 19.376C166.039 18.8 165.247 17.992 164.671 16.952C164.111 15.912 163.831 14.712 163.831 13.352C163.831 11.976 164.111 10.768 164.671 9.728C165.231 8.688 166.015 7.888 167.023 7.328C168.031 6.768 169.191 6.488 170.503 6.488C171.767 6.488 172.895 6.76 173.887 7.304C174.895 7.848 175.671 8.624 176.215 9.632C176.775 10.624 177.055 11.768 177.055 13.064ZM173.575 12.104C173.559 11.24 173.247 10.552 172.639 10.04C172.031 9.512 171.287 9.248 170.407 9.248C169.575 9.248 168.871 9.504 168.295 10.016C167.735 10.512 167.391 11.208 167.263 12.104H173.575Z" fill="white"/>
</svg>
