<svg width="69" height="56" viewBox="0 0 69 56" fill="none" xmlns="http://www.w3.org/2000/svg">
<path fill-rule="evenodd" clip-rule="evenodd" d="M7.62343 37.0098H0V9.88811C0.0977363 9.51142 0.938269 8.75804 2.34567 8.75804C3.75308 8.75804 4.59361 9.51142 4.69134 9.88811V27.9692H7.33023C7.33023 18.0811 9.96911 0 34.5987 0C59.2282 0 61.2807 18.3636 61.2807 27.9692H63.9196V9.88811C64.0173 9.51142 64.8578 8.75804 66.2652 8.75804C67.6726 8.75804 68.5132 9.51142 68.6109 9.88811V37.0098H61.2807C61.2807 50.2881 54.5369 55.0909 34.5987 55.0909C14.6605 55.0909 7.62343 50.0056 7.62343 37.0098ZM56.2961 26.8392C55.1233 5.93287 42.1244 4.99114 34.5987 4.8028C29.6141 4.8028 24.0431 5.36783 21.9907 13.2783C21.111 20.3413 27.5616 22.3189 27.5616 22.3189C27.5616 22.3189 33.4258 25.1441 45.4474 24.2965C51.5884 23.8636 51.898 31.0769 51.898 31.0769C51.898 31.0769 53.4796 39.4069 49.2591 42.6601C44.861 46.0504 32.5462 45.9248 25.8024 45.2028C23.1635 44.9203 17.5925 43.2289 17.5925 36.4448C17.5925 28.4871 16.9577 28.499 15.292 28.5301C15.1837 28.5322 15.0709 28.5343 14.9537 28.5343C13.1944 28.5343 12.0216 29.3818 12.3148 37.0098C12.6188 44.9199 15.2469 50.5706 34.5987 50.5706C53.9505 50.5706 57.4041 46.5899 56.2961 26.8392Z" fill="white"/>
<path d="M31.08 14.6909L35.1849 6.21539V14.6909H31.08Z" fill="white"/>
<path d="M37.5308 12.4308L33.4258 20.9064V12.4308H37.5308Z" fill="white"/>
</svg>
