<?xml version="1.0" standalone="no"?>
<!DOCTYPE svg PUBLIC "-//W3C//DTD SVG 20010904//EN"
 "http://www.w3.org/TR/2001/REC-SVG-20010904/DTD/svg10.dtd">
<svg version="1.0" xmlns="http://www.w3.org/2000/svg"
 width="922.000000pt" height="922.000000pt" viewBox="0 0 922.000000 922.000000"
 preserveAspectRatio="xMidYMid meet">
<metadata>
Created by potrace 1.14, written by Peter Selinger 2001-2017
</metadata>
<g transform="translate(0.000000,922.000000) scale(0.100000,-0.100000)"
fill="#000000" stroke="none">
<path d="M4328 8445 c-2 -2 -46 -7 -98 -10 -52 -4 -111 -8 -130 -10 -136 -14
-163 -17 -179 -20 -10 -2 -42 -6 -71 -10 -29 -4 -62 -9 -74 -11 -12 -2 -37 -7
-56 -10 -19 -3 -42 -7 -50 -9 -8 -2 -31 -7 -50 -10 -131 -22 -390 -93 -540
-147 -441 -159 -789 -375 -1096 -682 -300 -301 -507 -618 -675 -1038 -100
-248 -219 -684 -244 -895 -2 -13 -6 -40 -9 -60 -4 -21 -8 -51 -10 -68 -5 -37
-17 -122 -22 -154 -2 -13 -6 -61 -9 -105 -4 -45 -8 -92 -10 -105 -5 -26 -15
-252 -20 -431 -2 -58 -4 -108 -4 -112 -1 -5 -80 -8 -176 -8 l-175 0 0 1263
c-1 971 -4 1267 -13 1284 -37 67 -161 124 -278 129 -124 5 -236 -33 -303 -102
l-36 -37 0 -1899 0 -1898 510 0 c281 0 510 -3 511 -7 1 -5 2 -55 4 -113 8
-285 28 -445 90 -734 3 -10 12 -44 21 -75 10 -31 19 -64 21 -73 6 -34 76 -204
120 -292 141 -284 342 -506 628 -694 168 -111 444 -232 695 -306 122 -36 371
-95 430 -102 19 -3 42 -7 50 -9 13 -4 64 -12 185 -30 11 -2 45 -6 75 -9 30 -4
66 -9 80 -11 14 -2 50 -7 80 -10 30 -3 71 -8 90 -10 19 -2 78 -7 130 -10 52
-4 106 -8 120 -10 181 -27 1348 -27 1633 0 23 2 78 6 122 10 44 3 96 8 115 10
31 4 118 13 190 20 25 3 141 18 150 20 3 1 30 5 60 9 288 40 768 167 905 240
17 9 34 16 38 16 19 0 235 114 316 166 357 232 597 550 725 961 26 83 62 219
70 268 3 17 12 71 21 120 8 50 17 115 20 145 3 30 7 82 11 115 8 86 13 196 14
302 l0 93 493 2 492 3 0 1897 0 1897 -30 31 c-61 64 -178 110 -279 110 -124 0
-271 -65 -306 -135 -13 -26 -15 -189 -15 -1287 l1 -1258 -178 0 -178 0 -1 123
c0 219 -15 488 -34 637 -2 19 -7 60 -10 90 -4 30 -8 67 -10 81 -3 14 -7 43
-10 65 -2 21 -7 50 -10 64 -3 14 -7 41 -9 60 -14 104 -69 345 -118 515 -122
427 -327 834 -575 1144 -82 103 -287 312 -368 376 -27 22 -52 42 -55 45 -26
27 -292 210 -306 210 -4 0 -15 6 -23 14 -22 19 -257 136 -361 179 -145 59
-384 138 -490 161 -14 3 -86 19 -160 35 -74 17 -136 30 -138 30 -7 0 -104 14
-147 21 -27 5 -78 11 -112 15 -35 3 -80 8 -100 10 -102 13 -205 17 -520 20
-188 2 -343 2 -345 0z m662 -679 c19 -2 76 -7 125 -11 50 -3 99 -8 110 -10 11
-3 43 -7 70 -11 107 -13 107 -13 254 -45 150 -32 325 -83 431 -126 8 -4 17 -7
20 -8 67 -23 277 -132 369 -192 190 -123 338 -256 501 -449 116 -137 282 -416
362 -609 9 -22 24 -58 33 -80 20 -48 105 -300 110 -326 2 -11 6 -23 9 -27 3
-5 7 -19 10 -33 2 -13 14 -64 26 -114 12 -49 24 -99 26 -110 2 -11 8 -40 14
-65 11 -49 45 -254 55 -335 11 -87 13 -98 20 -170 3 -38 8 -86 10 -105 9 -84
18 -249 31 -550 14 -316 7 -945 -10 -1090 -2 -14 -7 -56 -10 -95 -4 -38 -9
-81 -11 -95 -2 -14 -7 -50 -10 -80 -4 -30 -8 -57 -10 -60 -2 -3 -6 -27 -9 -55
-4 -27 -20 -104 -36 -170 -82 -341 -205 -580 -400 -776 -105 -105 -140 -134
-250 -202 -227 -140 -600 -257 -965 -301 -22 -3 -56 -8 -75 -10 -54 -8 -212
-23 -330 -31 -403 -28 -1210 -28 -1560 0 -210 17 -316 29 -520 61 -190 30
-299 53 -480 104 -225 64 -428 153 -590 257 -289 188 -496 480 -577 817 -13
55 -42 206 -47 251 -4 28 -9 66 -11 85 -28 215 -28 921 0 1060 3 14 8 42 10
62 9 69 55 195 87 239 66 92 112 109 291 110 133 2 169 -14 213 -94 20 -37 51
-167 59 -247 3 -36 8 -85 10 -110 6 -64 15 -328 19 -590 4 -222 13 -308 42
-425 79 -314 282 -564 579 -713 178 -89 366 -137 615 -157 19 -1 69 -6 110 -9
272 -25 452 -31 845 -30 343 0 568 7 665 19 19 2 67 7 105 10 133 12 157 15
295 35 118 17 291 50 375 72 22 5 47 12 57 13 58 11 279 94 367 137 154 76
249 151 338 268 122 162 212 423 240 695 17 172 8 560 -17 715 -5 30 -11 82
-14 115 -25 255 -139 533 -277 675 -114 118 -225 176 -384 204 -76 13 -124 13
-345 0 -265 -16 -819 -10 -1025 11 -22 2 -69 7 -105 10 -36 4 -81 9 -100 12
-19 2 -48 6 -65 8 -94 11 -141 19 -259 41 -72 13 -169 34 -216 45 -47 11 -94
22 -104 24 -105 22 -430 144 -526 197 -274 151 -467 371 -555 631 -47 141 -60
231 -58 417 0 108 5 150 22 210 46 154 74 229 141 365 169 342 400 547 745
660 114 38 288 71 418 81 45 3 84 7 85 9 5 5 588 -3 632 -9z"/>
<path d="M4676 7478 c-24 -51 -53 -115 -66 -143 -13 -27 -43 -93 -67 -145 -25
-52 -88 -187 -140 -300 -52 -113 -121 -260 -153 -327 -86 -179 -93 -160 62
-161 73 0 143 -1 156 -1 l22 -1 1 -427 0 -428 37 75 c20 41 56 116 79 165 23
50 58 126 79 170 21 44 38 82 39 85 2 5 25 55 126 269 33 68 59 125 59 127 0
1 29 64 65 139 36 76 65 138 65 139 0 2 -66 3 -147 4 -82 0 -152 1 -158 1 -7
1 -10 149 -9 426 0 234 -1 425 -3 425 -2 0 -23 -42 -47 -92z"/>
</g>
</svg>
