<?xml version="1.0" encoding="UTF-8"?>
<svg xmlns="http://www.w3.org/2000/svg" xmlns:xlink="http://www.w3.org/1999/xlink" viewBox="0 0 30 30" width="30px" height="30px">
<g id="surface67786254">
<path style=" stroke:none;fill-rule:nonzero;fill:#ffffff;fill-opacity:1;" d="M 7 4 C 5.355469 4 4 5.355469 4 7 L 4 23 C 4 24.644531 5.355469 26 7 26 L 19.5 26 C 19.765625 26 20.019531 25.894531 20.207031 25.707031 L 25.707031 20.207031 C 25.894531 20.019531 26 19.765625 26 19.5 L 26 7 C 26 5.355469 24.644531 4 23 4 Z M 7 6 L 23 6 C 23.566406 6 24 6.433594 24 7 L 24 19 L 21 19 C 19.894531 19 19 19.894531 19 21 L 19 24 L 7 24 C 6.433594 24 6 23.566406 6 23 L 6 7 C 6 6.433594 6.433594 6 7 6 Z M 10 11 C 9.640625 10.996094 9.304688 11.183594 9.121094 11.496094 C 8.941406 11.808594 8.941406 12.191406 9.121094 12.503906 C 9.304688 12.816406 9.640625 13.003906 10 13 L 14 13 C 14.359375 13.003906 14.695312 12.816406 14.878906 12.503906 C 15.058594 12.191406 15.058594 11.808594 14.878906 11.496094 C 14.695312 11.183594 14.359375 10.996094 14 11 Z M 18 11 C 17.640625 10.996094 17.304688 11.183594 17.121094 11.496094 C 16.941406 11.808594 16.941406 12.191406 17.121094 12.503906 C 17.304688 12.816406 17.640625 13.003906 18 13 L 20 13 C 20.359375 13.003906 20.695312 12.816406 20.878906 12.503906 C 21.058594 12.191406 21.058594 11.808594 20.878906 11.496094 C 20.695312 11.183594 20.359375 10.996094 20 11 Z M 10 15 C 9.640625 14.996094 9.304688 15.183594 9.121094 15.496094 C 8.941406 15.808594 8.941406 16.191406 9.121094 16.503906 C 9.304688 16.816406 9.640625 17.003906 10 17 L 18 17 C 18.359375 17.003906 18.695312 16.816406 18.878906 16.503906 C 19.058594 16.191406 19.058594 15.808594 18.878906 15.496094 C 18.695312 15.183594 18.359375 14.996094 18 15 Z M 10 15 "/>
</g>
</svg>
