<svg version="1.1" xmlns="http://www.w3.org/2000/svg" 
xmlns:xlink="http://www.w3.org/1999/xlink" width="256px" height="256px" viewBox="0 0 172 172">
<g fill="none" fill-rule="nonzero" stroke="none" strokeWidth="1" 
strokeLinecap="butt" stroke-linejoin="miter" stroke-miterlimit="10" 
stroke-dasharray="" stroke-dashoffset="0" font-family="none" 
font-weight="none" font-size="none" text-anchor="none" 
style="mix-blend-mode: normal"><path d="M0,172v-172h172v172z" 
fill="none"></path><g>
<path d="M144.40833,56.25833c2.15,-6.09167 4.3,-17.91667 -1.43333,-31.175c-16.125,0 -29.74167,11.46667 -31.89167,13.61667c-7.88333,-1.79167 -16.48333,-2.50833 -25.08333,-2.50833c-8.95833,0 -17.55833,1.075 -25.8,2.86667c-11.10833,-11.46667 -25.8,-13.975 -31.53333,-13.975c0,0 -3.225,6.45 -3.225,17.91667c0,7.16667 1.79167,11.46667 2.86667,13.61667c-8.6,8.95833 -13.975,21.14167 -13.975,36.90833c0,40.13333 25.44167,53.75 71.66667,53.75c46.225,0 71.66667,-13.61667 71.66667,-53.75c0,-16.48333 -5.01667,-28.66667 -13.25833,-37.26667z" fill="#455a64"></path><path d="M86,139.75c-29.38333,0 -53.75,-5.01667 -53.75,-32.25c0,-10.39167 5.73333,-16.125 9.675,-19.70833c8.95833,-7.88333 24.00833,-4.3 44.075,-4.3c14.69167,0 27.23333,-2.50833 37.26667,0.71667c10.03333,3.225 16.48333,12.54167 16.48333,22.575c0,28.30833 -14.33333,32.96667 -53.75,32.96667z" fill="#ffccbc"></path><path d="M89.58333,121.83333c0,2.15 -1.43333,3.58333 -3.58333,3.58333c-2.15,0 -3.58333,-1.43333 -3.58333,-3.58333c0,-2.15 1.43333,-3.58333 3.58333,-3.58333c2.15,0 3.58333,1.43333 3.58333,3.58333zM94.95833,130.79167c0.71667,-0.71667 0.71667,-1.79167 0,-2.50833c-0.71667,-0.71667 -1.79167,-0.71667 -2.50833,0c-3.225,3.225 -9.31667,3.225 -12.54167,0c-0.71667,-0.71667 -1.79167,-0.71667 -2.50833,0c-0.71667,0.71667 -0.71667,1.79167 0,2.50833c2.50833,2.50833 5.375,3.58333 8.95833,3.58333c3.58333,0 6.09167,-1.43333 8.6,-3.58333z" fill="#d84315"></path><path d="M68.08333,105.70833c0,8.95833 -4.65833,16.125 -10.75,16.125c-6.09167,0 -10.75,-7.16667 -10.75,-16.125c0,-8.95833 4.65833,-16.125 10.75,-16.125c6.09167,0 10.75,7.16667 10.75,16.125zM114.66667,89.58333c-6.09167,0 -10.75,7.16667 -10.75,16.125c0,8.95833 4.65833,16.125 10.75,16.125c6.09167,0 10.75,-7.16667 10.75,-16.125c0,-8.95833 -4.65833,-16.125 -10.75,-16.125z" fill="#ffffff"></path><path d="M121.83333,107.5c0,6.09167 -3.225,10.75 -7.16667,10.75c-3.94167,0 -7.16667,-4.65833 -7.16667,-10.75c0,-0.71667 0,-1.79167 0.35833,-2.50833c0.35833,1.43333 1.79167,2.50833 3.225,2.50833c2.15,0 3.58333,-1.43333 3.58333,-3.58333c0,-2.15 -1.43333,-3.58333 -3.58333,-3.58333c-0.71667,0 -1.43333,0.35833 -2.15,0.71667c1.43333,-2.50833 3.225,-4.3 5.73333,-4.3c3.94167,0 7.16667,4.65833 7.16667,10.75zM57.33333,96.75c-2.50833,0 -4.3,1.79167 -5.73333,4.3c0.71667,-0.35833 1.43333,-0.71667 2.15,-0.71667c2.15,0 3.58333,1.43333 3.58333,3.58333c0,2.15 -1.43333,3.58333 -3.58333,3.58333c-1.43333,0 -2.86667,-1.075 -3.225,-2.50833c0,0.71667 -0.35833,1.79167 -0.35833,2.50833c0,6.09167 3.225,10.75 7.16667,10.75c3.94167,0 7.16667,-4.65833 7.16667,-10.75c0,-6.09167 -3.225,-10.75 -7.16667,-10.75z" fill="#6d4c41">
</path></g></g></svg>